<?xml version="1.0" encoding="utf-8"?>
<!-- Generator: Adobe Illustrator 26.0.3, SVG Export Plug-In . SVG Version: 6.00 Build 0)  -->
<svg version="1.0" id="katman_1" xmlns="http://www.w3.org/2000/svg" xmlns:xlink="http://www.w3.org/1999/xlink" x="0px" y="0px"
	 viewBox="0 0 600 450" style="enable-background:new 0 0 600 450;" xml:space="preserve">
<style type="text/css">
	.st0{fill-rule:evenodd;clip-rule:evenodd;fill:#FFFFFF;}
	.st1{fill:#77797E;}
</style>
<g id="Page-1">
	<g id="Group">
		<circle id="Oval" class="st0" cx="300.1" cy="225.4" r="132.5"/>
		<g id="twitter-gray">
			<path id="Shape" class="st1" d="M300.1,66.4c-87.5,0-159,71.6-159,159s71.6,159,159,159s159-71.6,159-159S387.6,66.4,300.1,66.4z
				 M363.7,193.6c0,1.3,0,2.7,0,4c0,43.7-33.1,92.8-92.8,92.8c-18.6,0-35.8-5.3-50.4-14.6c2.7,0,5.3,0,8,0
				c15.9,0,29.2-5.3,41.1-14.6c-14.6,0-26.5-9.3-30.5-22.5c2.7,0,4,0,6.6,0s5.3,0,8-1.3c-14.6-2.7-26.5-15.9-26.5-31.8l0,0
				c4,2.7,9.3,4,14.6,4c-9.3-5.3-14.6-15.9-14.6-26.5c0-6.6,1.3-11.9,4-15.9c15.9,19.9,39.8,33.1,67.6,34.5c0-2.7-1.3-5.3-1.3-8
				c0-18.6,14.6-33.1,33.1-33.1c9.3,0,17.2,4,23.9,10.6c8-1.3,14.6-4,21.2-8c-2.7,8-8,14.6-14.6,18.6c6.6-1.3,13.3-2.7,18.6-5.3
				C375.7,183,370.4,188.3,363.7,193.6z"/>
		</g>
	</g>
</g>
</svg>
